<svg width="1170" height="1019" viewBox="0 0 1170 1019" fill="none" xmlns="http://www.w3.org/2000/svg">
<path d="M537.5 598C535 567.5 500.5 527 454 520V506.5C487.5 504 526.5 461.5 535 422H546.5C560.5 459 591 496 630 499.5V512C601.6 513.2 549.5 564.5 549.5 598H537.5Z" stroke="#EAEAEA" stroke-width="5"/>
<path d="M264.328 296.142C262.915 289.865 254.548 282.443 244.663 282.347L244.268 279.536C251.169 278.036 258.044 268.047 258.658 259.575L261.052 259.238C265.049 266.532 272.481 273.342 280.703 272.929L281.069 275.532C275.191 276.612 265.846 288.817 266.826 295.791L264.328 296.142Z" fill="#FFB347"/>
<path d="M111.639 706.12C126.116 700.654 140.994 678.239 137.915 654.66L144.477 652.778C150.362 668.714 176.457 681.747 196.842 680.374L198.445 685.964C182.411 697.926 168.677 717.909 172.412 737.355L166.336 739.097C161.794 725.459 129.595 707.284 113.311 711.954L111.639 706.12Z" fill="#54B689"/>
<path d="M910.777 441.856C921.447 442.568 937.225 432.737 942.046 417.029L946.711 417.726C945.845 429.432 958.518 445.105 971.729 450.082L971.135 454.057C957.626 456.984 943.264 465.613 940.04 478.91L935.72 478.264C936.772 468.388 921.735 447.733 910.158 446.003L910.777 441.856Z" fill="#EAEAEA"/>
<path d="M418.144 734.681C419.923 730.002 417.681 721.593 411.309 717.285L412.259 715.292C417.381 717.282 426.132 713.753 430.169 708.52L431.867 709.33C431.328 715.779 433.226 723.389 438.738 726.652L437.857 728.498C433.58 726.675 422.275 730.58 419.916 735.526L418.144 734.681Z" stroke="#EAEAEA" stroke-width="2"/>
<circle cx="382" cy="477" r="10" fill="#EAEAEA"/>
<circle cx="480.5" cy="305.5" r="12.5" fill="#EAEAEA"/>
<circle cx="700" cy="725" r="15" fill="#EAEAEA"/>
<g opacity="0.5">
<path d="M719.264 772.305C619.033 839.912 508.451 871.632 410.717 868.305C312.982 864.978 228.177 826.616 179.296 754.147C130.415 681.678 126.615 588.677 160.143 496.812C193.67 404.949 264.504 314.302 364.736 246.695C464.967 179.088 575.549 147.368 673.282 150.695C771.017 154.022 855.823 192.384 904.704 264.853C953.585 337.322 957.385 430.323 923.857 522.188C890.33 614.051 819.495 704.698 719.264 772.305Z" stroke="#BDBDBD" stroke-width="2"/>
<path d="M625.65 778.055C495.846 757.496 382.511 712.804 304.204 657.214C225.841 601.583 182.823 535.252 192.933 471.419C203.043 407.585 264.454 357.794 356.172 329.101C447.824 300.43 569.423 292.948 699.228 313.507C829.032 334.066 942.367 378.757 1020.67 434.348C1099.04 489.979 1142.06 556.31 1131.95 620.143C1121.84 683.977 1060.42 733.768 968.706 762.461C877.054 791.132 755.455 798.614 625.65 778.055Z" stroke="#BDBDBD" stroke-width="2"/>
<path d="M570.557 674.738C510.979 665.302 459.783 639.721 425.164 606.041C390.544 572.359 372.562 530.649 379.177 488.882C385.792 447.115 415.783 413.003 459.118 391.668C502.45 370.334 559.045 361.826 618.623 371.262C678.2 380.698 729.397 406.279 764.015 439.959C798.636 473.641 816.618 515.351 810.003 557.118C803.387 598.885 773.397 632.996 730.062 654.332C686.73 675.666 630.135 684.174 570.557 674.738Z" stroke="#BDBDBD" stroke-width="2"/>
<path d="M373.528 508.039C320.916 438.22 284.481 366.631 268.082 307.356C259.882 277.715 256.706 251.206 258.987 229.56C261.268 207.916 268.988 191.236 282.485 181.066C295.981 170.896 314.143 168.072 335.577 171.845C357.013 175.619 381.62 185.979 407.852 202.031C460.311 234.133 519.085 288.889 571.697 358.708C624.309 428.527 660.744 500.117 677.143 559.392C685.343 589.032 688.519 615.542 686.238 637.188C683.957 658.831 676.237 675.511 662.74 685.682C649.244 695.852 631.082 698.676 609.648 694.903C588.212 691.129 563.605 680.769 537.373 664.716C484.914 632.614 426.14 577.858 373.528 508.039Z" stroke="#BDBDBD" stroke-width="2"/>
</g>
</svg>
